<?xml version="1.0" encoding="UTF-8" standalone="no"?>
<svg
   xmlns:dc="http://purl.org/dc/elements/1.1/"
   xmlns:cc="http://creativecommons.org/ns#"
   xmlns:rdf="http://www.w3.org/1999/02/22-rdf-syntax-ns#"
   xmlns:svg="http://www.w3.org/2000/svg"
   xmlns="http://www.w3.org/2000/svg"
   xmlns:sodipodi="http://sodipodi.sourceforge.net/DTD/sodipodi-0.dtd"
   xmlns:inkscape="http://www.inkscape.org/namespaces/inkscape"
   width="151.83574"
   height="41.748226"
   viewBox="0 0 151.83573 41.748226"
   version="1.1"
   id="svg78"
   sodipodi:docname="logo.svg"
   style="fill:none"
   inkscape:version="0.92.4 (5da689c313, 2019-01-14)">
  <metadata
     id="metadata84">
    <rdf:RDF>
      <cc:Work
         rdf:about="">
        <dc:format>image/svg+xml</dc:format>
        <dc:type
           rdf:resource="http://purl.org/dc/dcmitype/StillImage" />
      </cc:Work>
    </rdf:RDF>
  </metadata>
  <defs
     id="defs82" />
  <sodipodi:namedview
     pagecolor="#ffffff"
     bordercolor="#666666"
     borderopacity="1"
     objecttolerance="10"
     gridtolerance="10"
     guidetolerance="10"
     inkscape:pageopacity="0"
     inkscape:pageshadow="2"
     inkscape:window-width="1920"
     inkscape:window-height="1051"
     id="namedview80"
     showgrid="false"
     inkscape:zoom="5.2510714"
     inkscape:cx="88"
     inkscape:cy="17.248229"
     inkscape:window-x="-9"
     inkscape:window-y="-9"
     inkscape:window-maximized="1"
     inkscape:current-layer="svg78" />
  <path
     d="M 36.500068,0.16293442 H 33.14701 V 6.1001548 h -0.04786 c -0.526893,-0.7916292 -1.53282,-1.932524 -3.688425,-1.932524 -2.802192,0 -5.292991,2.0954992 -5.292991,6.3795782 0,3.39936 1.580679,6.659035 5.364911,6.659035 1.389066,0 2.874026,-0.488986 3.688338,-1.885927 h 0.04794 v 1.559994 H 36.50006 Z M 27.5666,10.780104 c 0,-1.9558565 0.718506,-3.7951963 2.850051,-3.7951963 2.299273,0 2.874112,2.0023928 2.874112,3.9814443 0,1.839365 -0.838286,3.562327 -2.969918,3.562327 -2.155519,0 -2.754245,-2.28179 -2.754245,-3.748575 z"
     id="path48"
     inkscape:connector-curvature="0"
     style="fill:#000000;stroke-width:0.86546171" />
  <path
     d="m 45.103536,13.248142 c -0.263447,0.884848 -1.221426,1.350466 -2.155518,1.350466 -2.706386,0 -2.897999,-2.095456 -2.993806,-3.02678 h 8.741942 v -0.582109 c 0,-5.6578172 -3.472838,-6.821993 -5.98761,-6.821993 -5.580497,0 -6.10739,4.7730991 -6.10739,6.263165 0,5.099041 2.754332,6.775439 6.346864,6.775439 2.179491,0 4.718236,-0.977885 5.604383,-3.958188 z M 40.050019,9.4530053 c 0.191613,-1.6298028 1.029899,-2.6076966 2.610579,-2.6076966 1.077759,0 2.395079,0.6053645 2.586691,2.6076966 z"
     id="path50"
     inkscape:connector-curvature="0"
     style="fill:#000000;stroke-width:0.86546171" />
  <path
     d="M 59.534504,8.2655919 C 59.270972,4.7731078 56.30114,4.167726 53.81034,4.167726 c -3.975757,0 -5.14941,2.3283343 -5.14941,4.1444191 0,4.6333449 7.903656,3.0733499 7.903656,5.1456119 0,0.465618 -0.407113,1.280537 -2.131546,1.280537 -2.107659,0 -2.778305,-0.768357 -2.778305,-1.816085 H 48.20587 c 0.0958,3.306236 3.233366,4.284121 6.131364,4.284121 1.987879,0 5.580497,-0.651951 5.580497,-4.26084 0,-4.5634934 -7.975576,-3.1431843 -7.975576,-5.0989978 0,-0.5355132 0.23956,-1.2107377 2.059799,-1.2107377 1.820239,0 2.107572,0.8382083 2.251325,1.6298374 z"
     id="path52"
     inkscape:connector-curvature="0"
     style="fill:#000000;stroke-width:0.86546171" />
  <path
     d="M 60.4094,4.4936502 V 16.880311 h 3.353144 V 4.4936502 Z M 63.762544,0 H 60.4094 v 3.0268224 h 3.353144 z"
     id="path54"
     inkscape:connector-curvature="0"
     style="fill:#000000;stroke-width:0.86546171" />
  <path
     d="m 73.707478,4.4937021 v 1.8393658 h -0.04786 C 73.252419,5.5181578 72.294438,4.167726 69.923334,4.167726 c -2.802193,0 -5.293078,2.0955078 -5.293078,6.379656 0,4.330597 2.418966,6.402858 5.484691,6.402858 2.011765,0 2.850052,-0.908042 3.400918,-1.862646 l 0.04794,0.04656 v 1.490152 c 0,2.002333 -0.86226,2.840533 -2.658525,2.840533 -1.940019,0 -2.203466,-0.628585 -2.347133,-1.257257 H 64.91767 c 0.143666,2.631004 2.921971,3.725294 5.556524,3.725294 6.275029,0 6.44267,-3.562327 6.44267,-5.704345 V 4.4937714 Z M 68.079121,10.75691 c 0,-2.8871456 1.389152,-3.7719071 2.634552,-3.7719071 1.868099,0 2.874026,1.6298288 2.874026,3.6322211 0,1.699681 -0.574753,3.585608 -2.850053,3.585608 -1.987879,0 -2.658525,-1.862647 -2.658525,-3.445922 z"
     id="path56"
     inkscape:connector-curvature="0"
     style="fill:#000000;stroke-width:0.86546171" />
  <path
     d="m 89.496529,8.3121451 c 0,-2.7241359 -1.940365,-4.1444191 -4.431251,-4.1444191 -2.419052,0 -3.377032,1.397011 -3.832091,2.1420697 h -0.04786 V 4.4937021 H 77.975935 V 16.880397 h 3.353058 V 9.7790248 c 0,-1.8859795 1.149594,-2.863856 2.634553,-2.863856 2.131545,0 2.179492,1.5366791 2.179492,2.444713 v 7.5205152 h 3.352626 z"
     id="path58"
     inkscape:connector-curvature="0"
     style="fill:#000000;stroke-width:0.86546171" />
  <path
     d="m 8.3108124,30.431797 c 0,0.582023 -0.5748138,2.165298 -2.2752903,2.165298 -2.5387539,0 -2.5866573,-2.677565 -2.5866573,-4.027945 0,-1.536713 0.5508664,-3.585608 2.658508,-3.585608 h 0.1676485 c 1.43703,0 1.9160458,1.210695 2.059747,2.002333 H 11.735747 C 11.424354,23.120895 8.1192077,22.236047 6.1073728,22.236047 1.7962917,22.236047 0,25.099947 0,29.104612 c 0,2.607722 1.1017241,6.170049 5.8918209,6.170049 4.6703601,0 5.7001731,-3.562327 5.8199531,-4.842864 z"
     id="path60"
     inkscape:connector-curvature="0"
     style="fill:#000000;stroke-width:0.86546171" />
  <path
     d="m 24.466169,28.755397 c 0,-4.470369 -3.089611,-6.51935 -6.514503,-6.51935 -3.424977,0 -6.514589,2.048981 -6.514589,6.51935 0,4.47037 3.089612,6.519264 6.514589,6.519264 3.424892,0 6.514503,-2.048894 6.514503,-6.519264 z m -3.448865,0 c 0,1.583276 -0.479032,3.771855 -3.065638,3.771855 -2.586692,0 -3.065724,-2.188579 -3.065724,-3.771855 0,-1.583275 0.479032,-3.771855 3.065724,-3.771855 2.586606,0 3.065638,2.18858 3.065638,3.771855 z"
     id="path62"
     inkscape:connector-curvature="0"
     style="fill:#000000;stroke-width:0.86546171" />
  <path
     d="m 35.249043,25.821742 c 0,-3.050147 -3.281138,-3.585695 -5.07749,-3.585695 -2.610579,0 -5.316964,0.535548 -5.700191,4.330685 h 3.233278 c 0.0958,-0.721709 0.383227,-1.722962 2.059799,-1.722962 0.862174,0 2.203466,0.06984 2.203466,1.44359 0,0.698515 -0.646674,0.908043 -1.173653,0.977885 L 27.77656,27.70767 c -2.131632,0.302652 -3.712311,1.536627 -3.712311,3.958102 0,2.561162 1.963905,3.608889 3.879952,3.608889 2.275298,0 3.353058,-1.024447 4.119424,-1.792804 0.07192,0.698514 0.11978,0.884762 0.311393,1.466872 h 3.616504 v -0.488987 c -0.407112,-0.139685 -0.742479,-0.465618 -0.742479,-1.93249 z m -3.281138,4.679898 c 0,1.513432 -1.508933,2.444755 -2.993892,2.444755 -0.646586,0 -1.556706,-0.3493 -1.556706,-1.490151 0,-1.350467 1.029814,-1.653119 2.275299,-1.862647 1.389066,-0.209528 1.939933,-0.419143 2.275299,-0.675233 z"
     id="path64"
     inkscape:connector-curvature="0"
     style="fill:#000000;stroke-width:0.86546171" />
  <path
     d="m 43.931875,30.431797 c 0,0.582023 -0.57484,2.165298 -2.275299,2.165298 -2.538745,0 -2.586692,-2.677565 -2.586692,-4.027945 0,-1.536713 0.550866,-3.585608 2.658525,-3.585608 h 0.16764 c 1.437099,0 1.916045,1.210695 2.059798,2.002333 h 3.400919 c -0.311307,-3.86498 -3.616505,-4.749828 -5.628357,-4.749828 -4.311038,0 -6.10739,2.8639 -6.10739,6.868565 0,2.607722 1.101733,6.170049 5.89189,6.170049 4.670291,0 5.70019,-3.562327 5.81997,-4.842864 z"
     id="path66"
     inkscape:connector-curvature="0"
     style="fill:#000000;stroke-width:0.86546171" />
  <path
     d="m 59.086888,26.38057 c 0,-2.724213 -1.94002,-4.144435 -4.430818,-4.144435 -1.82024,0 -3.257338,0.908042 -3.688425,1.932489 h -0.04786 v -5.937241 h -3.353056 v 16.717346 h 3.353058 v -7.101374 c 0,-1.885928 1.149593,-2.863813 2.634552,-2.863813 2.131546,0 2.179406,1.536715 2.179406,2.444756 v 7.520431 h 3.353145 z"
     id="path68"
     inkscape:connector-curvature="0"
     style="fill:#000000;stroke-width:0.86546171" />
  <path
     d="m 60.4094,22.562153 v 12.386662 h 3.353058 V 22.562153 Z m 3.353058,-4.49365 H 60.4094 v 3.02678 h 3.353058 z"
     id="path70"
     inkscape:connector-curvature="0"
     style="fill:#000000;stroke-width:0.86546171" />
  <path
     d="m 76.581503,26.380484 c 0,-2.724127 -1.940019,-4.144437 -4.430818,-4.144437 -2.418965,0 -3.377031,1.39703 -3.832091,2.142105 h -0.04786 V 22.562067 H 65.061343 V 34.948729 H 68.4144 v -7.101374 c 0,-1.885928 1.149594,-2.863813 2.634553,-2.863813 2.131632,0 2.179492,1.536628 2.179492,2.44467 v 7.520517 h 3.353058 z"
     id="path72"
     inkscape:connector-curvature="0"
     style="fill:#000000;stroke-width:0.86546171" />
  <path
     d="m 86.286705,22.562067 v 1.839366 h -0.04786 c -0.4072,-0.814919 -1.365179,-2.165386 -3.736285,-2.165386 -2.802192,0 -5.293077,2.095543 -5.293077,6.379665 0,4.330683 2.419052,6.402859 5.484691,6.402859 2.011852,0 2.850138,-0.908042 3.400918,-1.862647 l 0.04795,0.04665 v 1.490067 c 0,2.002418 -0.862261,2.840618 -2.658526,2.840618 -1.94002,0 -2.203465,-0.628672 -2.347132,-1.257343 h -3.640479 c 0.143667,2.631003 2.921973,3.725293 5.556525,3.725293 6.275203,0 6.442237,-3.562327 6.442237,-5.704345 V 22.562153 Z m -5.628358,6.263173 c 0,-2.887093 1.389153,-3.771855 2.634552,-3.771855 1.868186,0 2.874026,1.629751 2.874026,3.63217 0,1.69968 -0.574753,3.585607 -2.850052,3.585607 -1.98788,0 -2.658526,-1.862646 -2.658526,-3.445922 z"
     id="path74"
     inkscape:connector-curvature="0"
     style="fill:#000000;stroke-width:0.86546171" />
  <path
     d="M 94.367347,0.02078606 V 41.748228 h 36.879923 0.24493 v -0.0122 c 5.41605,-0.06534 10.58805,-2.290618 14.39608,-6.193677 3.80804,-3.902972 5.94485,-9.169306 5.94746,-14.657806 -0.002,-5.489104 -2.13856,-10.756303 -5.94659,-14.6599942 -3.80803,-3.9037169 -8.98003,-6.12945161 -14.39695,-6.19482037 v -0.0089413 h -0.24493 z M 131.24727,7.2349742 c 2.94516,0.00296 5.80205,1.0541237 8.10418,2.9815418 2.30126,1.927469 3.91188,4.617238 4.56791,7.629391 -0.045,-0.0021 -0.09,-0.0071 -0.13502,-0.0071 h -9.68624 c -1.59592,0 -2.88113,1.358515 -2.88113,3.045732 0,1.687218 1.28521,3.045214 2.88113,3.045214 h 9.68624 c 0.0441,0 0.0875,-0.0049 0.13069,-0.0071 -0.65516,3.011634 -2.26491,5.70097 -4.56618,7.628439 -2.30039,1.92747 -5.15728,2.979092 -8.10158,2.982987 -3.4506,-8.7e-5 -6.76012,-1.438138 -9.19986,-3.997913 -2.43974,-2.559863 -3.81063,-6.031576 -3.81063,-9.65163 0,-3.620053 1.37089,-7.091853 3.81063,-9.651629 2.43974,-2.5597756 5.74926,-3.9978961 9.19986,-3.9979393 z"
     id="path76"
     inkscape:connector-curvature="0"
     style="fill:#000000;stroke-width:0.86546171" />
</svg>
