<svg width="277" height="42" viewBox="0 0 277 42" fill="none" xmlns="http://www.w3.org/2000/svg">
<path d="M71.0677 29.2621H76.4784C77.3544 29.2621 78.2047 29.1197 79.0292 28.835C79.8537 28.5502 80.588 28.0841 81.2321 27.4369C81.8762 26.7638 82.3915 25.8964 82.778 24.835C83.1645 23.7735 83.3577 22.479 83.3577 20.9515C83.3577 19.5534 83.216 18.2977 82.9326 17.1845C82.6749 16.0453 82.2369 15.0744 81.6186 14.2718C81.0002 13.4693 80.1757 12.8608 79.1451 12.4466C78.1403 12.0065 76.8907 11.7864 75.3963 11.7864H71.0677V29.2621ZM65 6.66019H76.9035C78.6813 6.66019 80.3303 6.94498 81.8505 7.51456C83.3964 8.08414 84.7233 8.93851 85.8312 10.0777C86.9649 11.2168 87.8409 12.6408 88.4592 14.3495C89.1034 16.0583 89.4254 18.0647 89.4254 20.3689C89.4254 22.3883 89.1678 24.2524 88.6525 25.9612C88.1372 27.6699 87.3513 29.1456 86.295 30.3883C85.2643 31.6311 83.9632 32.6149 82.3915 33.3398C80.8456 34.0388 79.0163 34.3883 76.9035 34.3883H65V6.66019Z" fill="black"/>
<path d="M103.424 22.1942C103.166 20.7961 102.703 19.7346 102.033 19.0097C101.389 18.2848 100.397 17.9223 99.0569 17.9223C98.1809 17.9223 97.4466 18.0777 96.854 18.3883C96.2871 18.6731 95.8234 19.0356 95.4626 19.4757C95.1277 19.9159 94.8829 20.3819 94.7283 20.8738C94.5995 21.3657 94.5222 21.8058 94.4965 22.1942H103.424ZM94.4965 25.6893C94.5737 27.4498 95.0246 28.7443 95.8491 29.5728C96.6736 30.3754 97.8588 30.7767 99.4047 30.7767C100.513 30.7767 101.466 30.5049 102.265 29.9612C103.063 29.3916 103.553 28.7961 103.733 28.1748H108.564C107.791 30.5566 106.606 32.2783 105.009 33.3398C103.411 34.4013 101.479 34.932 99.2115 34.932C97.6398 34.932 96.2227 34.6731 94.9602 34.1553C93.6977 33.6375 92.6285 32.9126 91.7525 31.9806C90.8764 31.0485 90.1937 29.9353 89.7041 28.6408C89.2403 27.3463 89.0085 25.9223 89.0085 24.3689C89.0085 22.8673 89.2532 21.4693 89.7428 20.1748C90.2323 18.8803 90.928 17.767 91.8298 16.835C92.7315 15.877 93.8008 15.1262 95.0375 14.5825C96.3 14.0388 97.6913 13.767 99.2115 13.767C100.912 13.767 102.393 14.1036 103.656 14.7767C104.918 15.4239 105.949 16.3042 106.748 17.4175C107.572 18.5307 108.165 19.7994 108.526 21.2233C108.886 22.6472 109.015 24.1359 108.912 25.6893H94.4965Z" fill="black"/>
<path d="M113.326 27.8641C113.326 28.4595 113.442 28.9773 113.674 29.4175C113.932 29.8317 114.254 30.1812 114.64 30.466C115.027 30.7249 115.465 30.9191 115.954 31.0485C116.47 31.178 116.998 31.2427 117.539 31.2427C117.925 31.2427 118.325 31.2039 118.737 31.1262C119.175 31.0227 119.562 30.8803 119.897 30.699C120.257 30.4919 120.554 30.233 120.785 29.9223C121.017 29.5858 121.133 29.1715 121.133 28.6796C121.133 28.2654 120.992 27.9159 120.708 27.6311C120.425 27.3204 120.012 27.0485 119.471 26.8155C118.956 26.5825 118.312 26.3754 117.539 26.1942C116.766 25.9871 115.89 25.7799 114.911 25.5728C114.112 25.3916 113.326 25.1845 112.553 24.9515C111.806 24.6926 111.136 24.3689 110.544 23.9806C109.951 23.5663 109.475 23.0615 109.114 22.466C108.753 21.8447 108.573 21.0939 108.573 20.2136C108.573 18.945 108.817 17.8964 109.307 17.068C109.822 16.2136 110.492 15.5534 111.317 15.0874C112.141 14.5955 113.069 14.2589 114.099 14.0777C115.13 13.8705 116.186 13.767 117.268 13.767C118.351 13.767 119.394 13.8705 120.399 14.0777C121.43 14.2848 122.344 14.6343 123.143 15.1262C123.942 15.6181 124.599 16.2783 125.114 17.1068C125.655 17.9094 125.977 18.932 126.08 20.1748H120.863C120.785 19.1133 120.386 18.4013 119.665 18.0388C118.943 17.6505 118.093 17.4563 117.114 17.4563C116.805 17.4563 116.47 17.4822 116.109 17.534C115.748 17.5599 115.413 17.6375 115.104 17.767C114.821 17.8964 114.576 18.0906 114.37 18.3495C114.164 18.5825 114.061 18.9061 114.061 19.3204C114.061 19.8123 114.241 20.2136 114.602 20.5243C114.962 20.835 115.426 21.0938 115.993 21.301C116.586 21.4822 117.256 21.6505 118.003 21.8058C118.75 21.9612 119.51 22.1294 120.283 22.3107C121.082 22.4919 121.855 22.712 122.602 22.9709C123.375 23.2298 124.058 23.5793 124.65 24.0194C125.243 24.4337 125.719 24.9644 126.08 25.6116C126.441 26.233 126.621 27.0097 126.621 27.9417C126.621 29.2621 126.351 30.3754 125.81 31.2816C125.294 32.1618 124.612 32.8738 123.761 33.4175C122.911 33.9612 121.932 34.3495 120.824 34.5825C119.742 34.8155 118.634 34.932 117.5 34.932C116.341 34.932 115.207 34.8155 114.099 34.5825C112.991 34.3495 111.999 33.9612 111.123 33.4175C110.273 32.8479 109.565 32.11 108.998 31.2039C108.457 30.2977 108.16 29.1845 108.109 27.8641H113.326Z" fill="black"/>
<path d="M132.384 11.2039H126.896V6.66019H132.384V11.2039ZM126.896 14.3107H132.384V34.3883H126.896V14.3107Z" fill="black"/>
<path d="M142.928 29.6505C143.701 29.6505 144.383 29.4951 144.976 29.1845C145.569 28.8738 146.058 28.4595 146.445 27.9417C146.831 27.4239 147.114 26.8414 147.295 26.1942C147.501 25.521 147.604 24.822 147.604 24.0971C147.604 23.2945 147.527 22.5178 147.372 21.767C147.218 21.0162 146.96 20.356 146.599 19.7864C146.238 19.2168 145.749 18.7638 145.131 18.4272C144.538 18.0906 143.804 17.9223 142.928 17.9223C142.155 17.9223 141.485 18.0777 140.918 18.3883C140.377 18.699 139.913 19.1262 139.527 19.6699C139.166 20.1877 138.895 20.7961 138.715 21.4951C138.56 22.1683 138.483 22.8803 138.483 23.6311C138.483 24.356 138.548 25.0809 138.676 25.8058C138.831 26.5049 139.076 27.1392 139.411 27.7087C139.771 28.2783 140.235 28.7443 140.802 29.1068C141.369 29.4693 142.077 29.6505 142.928 29.6505ZM152.821 33.1068C152.821 33.6505 152.77 34.246 152.667 34.8932C152.59 35.5663 152.422 36.2265 152.164 36.8738C151.907 37.5469 151.546 38.1812 151.082 38.7767C150.619 39.3981 150 39.9417 149.227 40.4078C148.454 40.8997 147.514 41.288 146.406 41.5728C145.298 41.8576 143.984 42 142.464 42C141.485 42 140.48 41.8705 139.449 41.6116C138.444 41.3786 137.517 41.0032 136.667 40.4854C135.842 39.9676 135.147 39.2945 134.58 38.466C134.039 37.6634 133.729 36.6926 133.652 35.5534H139.101C139.359 36.589 139.862 37.301 140.609 37.6893C141.356 38.1036 142.219 38.3107 143.198 38.3107C144.718 38.3107 145.839 37.8447 146.561 36.9126C147.282 35.9806 147.63 34.7896 147.604 33.3398V30.699H147.527C146.934 31.7605 146.084 32.5502 144.976 33.068C143.894 33.5599 142.747 33.8058 141.536 33.8058C140.042 33.8058 138.754 33.5469 137.672 33.0291C136.589 32.4854 135.7 31.7605 135.005 30.8544C134.309 29.9223 133.794 28.8479 133.459 27.6311C133.15 26.3883 132.995 25.0809 132.995 23.7087C132.995 22.4142 133.175 21.1715 133.536 19.9806C133.923 18.7638 134.477 17.7023 135.198 16.7961C135.919 15.8641 136.808 15.1262 137.865 14.5825C138.947 14.0388 140.184 13.767 141.575 13.767C142.889 13.767 144.036 14.0129 145.015 14.5049C146.019 14.9968 146.857 15.8252 147.527 16.9903H147.604V14.3107H152.821V33.1068Z" fill="black"/>
<path d="M154.148 14.3107H159.366V17.1068H159.482C160.177 15.9676 161.079 15.1262 162.187 14.5825C163.295 14.0388 164.429 13.767 165.588 13.767C167.057 13.767 168.255 13.9741 169.182 14.3883C170.136 14.7767 170.883 15.3333 171.424 16.0583C171.965 16.7573 172.338 17.6246 172.545 18.6602C172.776 19.6699 172.892 20.7961 172.892 22.0388V34.3883H167.404V23.0485C167.404 21.3916 167.134 20.1618 166.593 19.3592C166.077 18.5307 165.176 18.1165 163.887 18.1165C162.393 18.1165 161.311 18.5696 160.641 19.4757C159.971 20.356 159.636 21.8188 159.636 23.8641V34.3883H154.148V14.3107Z" fill="black"/>
<path d="M192.942 15.9806C192.839 15.2816 192.607 14.6472 192.246 14.0777C191.885 13.4822 191.435 12.9644 190.894 12.5243C190.352 12.0841 189.734 11.7476 189.038 11.5146C188.369 11.2557 187.66 11.1262 186.913 11.1262C185.547 11.1262 184.388 11.3981 183.434 11.9417C182.481 12.4595 181.708 13.1715 181.116 14.0777C180.523 14.9579 180.085 15.9676 179.802 17.1068C179.544 18.246 179.415 19.4239 179.415 20.6408C179.415 21.8058 179.544 22.945 179.802 24.0583C180.085 25.1456 180.523 26.1294 181.116 27.0097C181.708 27.89 182.481 28.6019 183.434 29.1456C184.388 29.6634 185.547 29.9223 186.913 29.9223C188.768 29.9223 190.211 29.3527 191.241 28.2136C192.298 27.0485 192.942 25.5469 193.174 23.7087H199.048C198.894 25.4434 198.494 27.0097 197.85 28.4078C197.206 29.8058 196.356 30.9968 195.299 31.9806C194.243 32.9644 193.006 33.7282 191.589 34.2718C190.172 34.7896 188.613 35.0485 186.913 35.0485C184.774 35.0485 182.868 34.6731 181.193 33.9223C179.518 33.1715 178.101 32.1489 176.942 30.8544C175.782 29.5599 174.893 28.0324 174.275 26.2718C173.657 24.5113 173.347 22.6343 173.347 20.6408C173.347 18.5955 173.657 16.6796 174.275 14.8932C174.893 13.1068 175.782 11.5534 176.942 10.233C178.101 8.91262 179.518 7.87702 181.193 7.12621C182.868 6.3754 184.774 6 186.913 6C188.433 6 189.863 6.22006 191.203 6.66019C192.568 7.10032 193.779 7.74757 194.836 8.60194C195.918 9.43042 196.807 10.466 197.502 11.7087C198.198 12.9515 198.636 14.3754 198.816 15.9806H192.942Z" fill="black"/>
<path d="M204.39 24.3689C204.39 25.1715 204.467 25.9612 204.622 26.7379C204.776 27.4887 205.034 28.1748 205.395 28.7961C205.781 29.3916 206.284 29.8705 206.902 30.233C207.52 30.5955 208.293 30.7767 209.221 30.7767C210.148 30.7767 210.921 30.5955 211.54 30.233C212.184 29.8705 212.686 29.3916 213.047 28.7961C213.433 28.1748 213.704 27.4887 213.858 26.7379C214.013 25.9612 214.09 25.1715 214.09 24.3689C214.09 23.5663 214.013 22.7767 213.858 22C213.704 21.2233 213.433 20.5372 213.047 19.9417C212.686 19.3463 212.184 18.8673 211.54 18.5049C210.921 18.1165 210.148 17.9223 209.221 17.9223C208.293 17.9223 207.52 18.1165 206.902 18.5049C206.284 18.8673 205.781 19.3463 205.395 19.9417C205.034 20.5372 204.776 21.2233 204.622 22C204.467 22.7767 204.39 23.5663 204.39 24.3689ZM198.902 24.3689C198.902 22.7638 199.147 21.3139 199.636 20.0194C200.126 18.699 200.821 17.5858 201.723 16.6796C202.625 15.7476 203.707 15.0356 204.969 14.5437C206.232 14.0259 207.649 13.767 209.221 13.767C210.792 13.767 212.21 14.0259 213.472 14.5437C214.76 15.0356 215.855 15.7476 216.757 16.6796C217.659 17.5858 218.355 18.699 218.844 20.0194C219.334 21.3139 219.578 22.7638 219.578 24.3689C219.578 25.9741 219.334 27.4239 218.844 28.7184C218.355 30.0129 217.659 31.1262 216.757 32.0583C215.855 32.9644 214.76 33.6764 213.472 34.1942C212.21 34.6861 210.792 34.932 209.221 34.932C207.649 34.932 206.232 34.6861 204.969 34.1942C203.707 33.6764 202.625 32.9644 201.723 32.0583C200.821 31.1262 200.126 30.0129 199.636 28.7184C199.147 27.4239 198.902 25.9741 198.902 24.3689Z" fill="black"/>
<path d="M219.823 20.4854C219.9 19.1909 220.222 18.1165 220.789 17.2621C221.356 16.4078 222.077 15.7217 222.953 15.2039C223.829 14.6861 224.809 14.3236 225.891 14.1165C226.973 13.8835 228.081 13.767 229.214 13.767C230.219 13.767 231.237 13.8447 232.268 14C233.298 14.1294 234.239 14.4013 235.089 14.8155C235.939 15.2298 236.635 15.8123 237.176 16.5631C237.717 17.3139 237.987 18.2848 237.987 19.4757V29.9223C237.987 30.8285 238.039 31.6958 238.142 32.5243C238.245 33.3528 238.425 33.9741 238.683 34.3883H233.118C233.015 34.0777 232.925 33.767 232.847 33.4563C232.796 33.1197 232.757 32.7832 232.731 32.4466C231.855 33.3527 230.825 34 229.639 34.3883C228.454 34.7508 227.243 34.932 226.007 34.932C225.053 34.932 224.164 34.8026 223.34 34.5437C222.515 34.3107 221.794 33.9482 221.176 33.4563C220.557 32.9644 220.068 32.343 219.707 31.5922C219.372 30.8414 219.205 29.9482 219.205 28.9126C219.205 27.7735 219.398 26.8414 219.784 26.1165C220.171 25.3657 220.686 24.7702 221.33 24.3301C221.974 23.89 222.696 23.5663 223.494 23.3592C224.319 23.1262 225.156 22.945 226.007 22.8155C226.857 22.6861 227.668 22.5825 228.441 22.5049C229.214 22.4272 229.897 22.3107 230.49 22.1553C231.108 22 231.598 21.7799 231.958 21.4951C232.319 21.1845 232.499 20.7443 232.499 20.1748C232.499 19.5793 232.396 19.1133 232.19 18.7767C232.01 18.4142 231.752 18.1424 231.417 17.9612C231.108 17.754 230.735 17.6246 230.296 17.5728C229.884 17.4951 229.433 17.4563 228.944 17.4563C227.887 17.4563 227.037 17.6893 226.393 18.1553C225.775 18.6214 225.414 19.3981 225.311 20.4854H219.823ZM232.499 24.5631C232.268 24.7702 231.971 24.9385 231.611 25.068C231.276 25.1715 230.902 25.2621 230.49 25.3398C230.103 25.4175 229.678 25.4822 229.214 25.534C228.776 25.5858 228.351 25.6505 227.939 25.7282C227.501 25.8058 227.089 25.9094 226.702 26.0388C226.316 26.1683 225.968 26.3495 225.659 26.5825C225.375 26.7896 225.143 27.0744 224.963 27.4369C224.783 27.7735 224.693 28.1877 224.693 28.6796C224.693 29.1974 224.783 29.6246 224.963 29.9612C225.143 30.2718 225.388 30.5307 225.697 30.7379C226.007 30.9191 226.367 31.0485 226.78 31.1262C227.192 31.2039 227.617 31.2427 228.055 31.2427C229.137 31.2427 229.974 31.0615 230.567 30.699C231.16 30.3366 231.598 29.9094 231.881 29.4175C232.164 28.8997 232.332 28.3819 232.383 27.8641C232.461 27.3463 232.499 26.932 232.499 26.6214V24.5631Z" fill="black"/>
<path d="M252.759 21.3786C252.399 19.0744 251.046 17.9223 248.701 17.9223C247.825 17.9223 247.091 18.1294 246.498 18.5437C245.906 18.932 245.416 19.4498 245.03 20.0971C244.669 20.7184 244.411 21.4175 244.257 22.1942C244.102 22.9709 244.025 23.7217 244.025 24.4466C244.025 25.1715 244.102 25.9094 244.257 26.6602C244.411 27.411 244.656 28.0971 244.991 28.7184C245.352 29.3139 245.829 29.8058 246.421 30.1942C247.014 30.5825 247.735 30.7767 248.585 30.7767C249.874 30.7767 250.878 30.4142 251.6 29.6893C252.321 28.9385 252.772 27.9417 252.953 26.699H258.247C257.887 29.3657 256.856 31.411 255.156 32.835C253.455 34.233 251.278 34.932 248.624 34.932C247.104 34.932 245.725 34.6861 244.489 34.1942C243.252 33.6764 242.196 32.9644 241.32 32.0583C240.444 31.1262 239.761 30.0388 239.271 28.7961C238.782 27.5275 238.537 26.1424 238.537 24.6408C238.537 23.0874 238.756 21.6505 239.194 20.3301C239.658 18.9838 240.328 17.8317 241.204 16.8738C242.08 15.89 243.149 15.1262 244.411 14.5825C245.674 14.0388 247.117 13.767 248.74 13.767C249.925 13.767 251.059 13.9223 252.141 14.233C253.249 14.5437 254.228 15.0227 255.078 15.6699C255.928 16.2913 256.624 17.0809 257.165 18.0388C257.732 18.9968 258.054 20.11 258.131 21.3786H252.759Z" fill="black"/>
<path d="M258.256 6.66019H263.744V17.1068H263.86C264.555 15.9676 265.444 15.1262 266.526 14.5825C267.609 14.0388 268.665 13.767 269.696 13.767C271.164 13.767 272.362 13.9741 273.29 14.3883C274.243 14.7767 274.99 15.3333 275.531 16.0583C276.072 16.7573 276.446 17.6246 276.652 18.6602C276.884 19.6699 277 20.7961 277 22.0388V34.3883H271.512V23.0485C271.512 21.3916 271.241 20.1618 270.7 19.3592C270.185 18.5307 269.283 18.1165 267.995 18.1165C266.501 18.1165 265.419 18.5696 264.749 19.4757C264.079 20.356 263.744 21.8188 263.744 23.8641V34.3883H258.256V6.66019Z" fill="black"/>
<path d="M0 0V42H37.2213H37.4687V41.9877C42.9345 41.9219 48.1544 39.6821 51.9975 35.7536C55.8406 31.8251 57.9972 26.5244 58 21C57.998 15.4751 55.8418 10.1735 51.9987 6.24428C48.1555 2.31507 42.935 0.074795 37.4687 0.00899966V0H37.2213H0ZM37.2213 7.26131C40.1936 7.2643 43.077 8.32232 45.4001 10.2624C47.7231 12.2024 49.3484 14.9097 50.01 17.9415C49.9646 17.9393 49.9197 17.9344 49.8737 17.9344H40.0985C38.4875 17.9344 37.1904 19.3018 37.1904 21C37.1904 22.6982 38.4875 24.0651 40.0985 24.0651H49.8737C49.9185 24.0651 49.962 24.0602 50.0062 24.058C49.3448 27.0893 47.7202 29.7962 45.3979 31.7362C43.0756 33.6763 40.193 34.7348 37.2213 34.7387C33.7387 34.7386 30.3989 33.2912 27.9364 30.7147C25.4739 28.1382 24.0905 24.6437 24.0905 21C24.0905 17.3563 25.4739 13.8618 27.9364 11.2853C30.3989 8.70884 33.7387 7.26135 37.2213 7.26131V7.26131Z" fill="black"/>
</svg>
