<svg width="171" height="26" viewBox="0 0 171 26" fill="none" xmlns="http://www.w3.org/2000/svg">
<path d="M43.8721 18.1366H47.2123C47.7531 18.1366 48.278 18.0487 48.7869 17.8728C49.2959 17.697 49.7492 17.4093 50.1469 17.0098C50.5445 16.5942 50.8626 16.0588 51.1012 15.4035C51.3398 14.7482 51.4591 13.9491 51.4591 13.0061C51.4591 12.1431 51.3716 11.3679 51.1966 10.6807C51.0376 9.97743 50.7672 9.37808 50.3855 8.88262C50.0037 8.38716 49.4947 8.01157 48.8585 7.75585C48.2382 7.48414 47.4668 7.34829 46.5443 7.34829H43.8721V18.1366ZM40.1263 4.18373H47.4747C48.5722 4.18373 49.5902 4.35954 50.5286 4.71116C51.4829 5.06278 52.3021 5.5902 52.986 6.29344C53.6859 6.99667 54.2267 7.87572 54.6084 8.93057C55.006 9.98542 55.2049 11.2241 55.2049 12.6465C55.2049 13.8932 55.0458 15.0439 54.7277 16.0988C54.4096 17.1536 53.9245 18.0646 53.2723 18.8318C52.6361 19.599 51.8329 20.2063 50.8626 20.6538C49.9083 21.0853 48.779 21.3011 47.4747 21.3011H40.1263V4.18373Z" fill="black"/>
<path d="M63.8466 13.7733C63.6876 12.9102 63.4013 12.255 62.9877 11.8074C62.5901 11.3599 61.9777 11.1362 61.1506 11.1362C60.6098 11.1362 60.1565 11.2321 59.7907 11.4239C59.4408 11.5997 59.1545 11.8234 58.9318 12.0951C58.725 12.3668 58.5739 12.6545 58.4785 12.9582C58.399 13.2619 58.3512 13.5336 58.3353 13.7733H63.8466ZM58.3353 15.931C58.3831 17.0178 58.6614 17.8169 59.1704 18.3283C59.6794 18.8238 60.411 19.0715 61.3654 19.0715C62.0493 19.0715 62.6378 18.9037 63.1309 18.5681C63.624 18.2165 63.9262 17.8489 64.0375 17.4653H67.0198C66.5426 18.9357 65.811 19.9985 64.8248 20.6538C63.8387 21.3091 62.6458 21.6368 61.2461 21.6368C60.2758 21.6368 59.401 21.4769 58.6216 21.1573C57.8423 20.8376 57.1822 20.3901 56.6414 19.8147C56.1006 19.2394 55.6791 18.5521 55.3769 17.753C55.0906 16.9538 54.9474 16.0748 54.9474 15.1158C54.9474 14.1888 55.0986 13.3258 55.4008 12.5267C55.703 11.7275 56.1324 11.0403 56.6891 10.4649C57.2458 9.87354 57.9059 9.41005 58.6694 9.07441C59.4487 8.73878 60.3076 8.57096 61.2461 8.57096C62.2958 8.57096 63.2104 8.77873 63.9898 9.19428C64.7692 9.59385 65.4054 10.1373 65.8985 10.8245C66.4074 11.5118 66.7733 12.2949 66.9959 13.174C67.2186 14.053 67.2982 14.972 67.2345 15.931H58.3353Z" fill="black"/>
<path d="M69.9596 17.2735C69.9596 17.6411 70.0312 17.9607 70.1743 18.2325C70.3334 18.4882 70.5322 18.7039 70.7708 18.8797C71.0094 19.0396 71.2798 19.1594 71.582 19.2394C71.9001 19.3193 72.2262 19.3592 72.5602 19.3592C72.7988 19.3592 73.0453 19.3353 73.2998 19.2873C73.5702 19.2234 73.8088 19.1355 74.0155 19.0236C74.2382 18.8957 74.4211 18.7359 74.5643 18.5441C74.7074 18.3363 74.779 18.0806 74.779 17.7769C74.779 17.5212 74.6915 17.3055 74.5166 17.1297C74.3416 16.9379 74.0871 16.77 73.7531 16.6262C73.435 16.4824 73.0373 16.3545 72.5602 16.2426C72.083 16.1148 71.5422 15.9869 70.9378 15.859C70.4447 15.7472 69.9596 15.6193 69.4824 15.4755C69.0212 15.3156 68.6076 15.1158 68.2418 14.8761C67.876 14.6204 67.5817 14.3087 67.359 13.9411C67.1364 13.5575 67.025 13.094 67.025 12.5506C67.025 11.7675 67.1761 11.1202 67.4783 10.6087C67.7964 10.0813 68.21 9.67376 68.719 9.38607C69.228 9.0824 69.8006 8.87463 70.4368 8.76275C71.073 8.63489 71.7251 8.57096 72.3932 8.57096C73.0612 8.57096 73.7054 8.63489 74.3257 8.76275C74.9619 8.89061 75.5266 9.10638 76.0196 9.41005C76.5127 9.71372 76.9183 10.1213 77.2364 10.6327C77.5704 11.1282 77.7693 11.7595 77.8329 12.5267H74.612C74.5643 11.8714 74.3177 11.4318 73.8724 11.2081C73.427 10.9684 72.9021 10.8485 72.2977 10.8485C72.1069 10.8485 71.9001 10.8645 71.6774 10.8964C71.4547 10.9124 71.248 10.9604 71.0571 11.0403C70.8821 11.1202 70.731 11.2401 70.6038 11.3999C70.4765 11.5437 70.4129 11.7435 70.4129 11.9992C70.4129 12.3029 70.5243 12.5506 70.7469 12.7424C70.9696 12.9342 71.2559 13.094 71.6058 13.2219C71.9717 13.3338 72.3852 13.4377 72.8465 13.5336C73.3077 13.6295 73.777 13.7333 74.2541 13.8452C74.7472 13.9571 75.2244 14.093 75.6856 14.2528C76.1628 14.4126 76.5843 14.6284 76.9501 14.9001C77.316 15.1558 77.6102 15.4834 77.8329 15.883C78.0556 16.2666 78.1669 16.7461 78.1669 17.3214C78.1669 18.1366 77.9999 18.8238 77.6659 19.3832C77.3478 19.9266 76.9263 20.3661 76.4014 20.7018C75.8765 21.0374 75.2721 21.2771 74.5881 21.421C73.9201 21.5648 73.2362 21.6368 72.5363 21.6368C71.8206 21.6368 71.1207 21.5648 70.4368 21.421C69.7528 21.2771 69.1405 21.0374 68.5997 20.7018C68.0748 20.3501 67.6374 19.8946 67.2875 19.3353C66.9534 18.7759 66.7705 18.0886 66.7387 17.2735H69.9596Z" fill="black"/>
<path d="M81.7244 6.98868H78.3365V4.18373H81.7244V6.98868ZM78.3365 8.9066H81.7244V21.3011H78.3365V8.9066Z" fill="black"/>
<path d="M88.2333 18.3763C88.7105 18.3763 89.132 18.2804 89.4978 18.0886C89.8636 17.8968 90.1658 17.6411 90.4044 17.3214C90.643 17.0018 90.818 16.6422 90.9293 16.2426C91.0565 15.8271 91.1202 15.3955 91.1202 14.948C91.1202 14.4526 91.0724 13.9731 90.977 13.5096C90.8816 13.0461 90.7225 12.6385 90.4998 12.2869C90.2772 11.9353 89.975 11.6556 89.5932 11.4478C89.2274 11.2401 88.7741 11.1362 88.2333 11.1362C87.7561 11.1362 87.3426 11.2321 86.9927 11.4239C86.6586 11.6156 86.3723 11.8794 86.1337 12.215C85.9111 12.5346 85.7441 12.9102 85.6327 13.3418C85.5373 13.7573 85.4896 14.1968 85.4896 14.6603C85.4896 15.1079 85.5293 15.5554 85.6089 16.0029C85.7043 16.4344 85.8554 16.826 86.0622 17.1776C86.2849 17.5292 86.5712 17.8169 86.9211 18.0407C87.271 18.2644 87.7084 18.3763 88.2333 18.3763ZM94.341 20.51C94.341 20.8456 94.3092 21.2132 94.2456 21.6128C94.1979 22.0283 94.0945 22.4359 93.9354 22.8354C93.7764 23.251 93.5537 23.6426 93.2674 24.0102C92.9811 24.3938 92.5994 24.7294 92.1222 25.0171C91.645 25.3207 91.0645 25.5605 90.3805 25.7363C89.6966 25.9121 88.8854 26 87.947 26C87.3426 26 86.7223 25.9201 86.086 25.7603C85.4657 25.6164 84.8931 25.3847 84.3682 25.065C83.8592 24.7454 83.4298 24.3298 83.0799 23.8184C82.7459 23.3229 82.555 22.7236 82.5073 22.0203H85.8713C86.0304 22.6596 86.3405 23.0992 86.8018 23.3389C87.263 23.5946 87.7959 23.7225 88.4003 23.7225C89.3387 23.7225 90.0306 23.4348 90.476 22.8594C90.9213 22.284 91.1361 21.5488 91.1202 20.6538V19.0236H91.0724C90.7066 19.6789 90.1817 20.1663 89.4978 20.486C88.8297 20.7897 88.122 20.9415 87.3744 20.9415C86.4519 20.9415 85.6566 20.7817 84.9885 20.462C84.3205 20.1264 83.7718 19.6789 83.3423 19.1195C82.9129 18.5441 82.5947 17.8808 82.388 17.1297C82.1971 16.3625 82.1017 15.5554 82.1017 14.7083C82.1017 13.9092 82.213 13.142 82.4357 12.4068C82.6743 11.6556 83.0163 11.0003 83.4616 10.4409C83.907 9.86555 84.4557 9.41005 85.1078 9.07441C85.7759 8.73878 86.5393 8.57096 87.3982 8.57096C88.2094 8.57096 88.9172 8.7228 89.5216 9.02647C90.142 9.33013 90.6589 9.84158 91.0724 10.5608H91.1202V8.9066H94.341V20.51Z" fill="black"/>
<path d="M95.1601 8.9066H98.3809V10.6327H98.4525C98.882 9.92948 99.4387 9.41005 100.123 9.07441C100.807 8.73878 101.506 8.57096 102.222 8.57096C103.129 8.57096 103.868 8.69882 104.441 8.95454C105.029 9.19428 105.491 9.53791 105.825 9.98542C106.159 10.417 106.389 10.9524 106.517 11.5917C106.66 12.215 106.731 12.9102 106.731 13.6774V21.3011H103.343V14.3007C103.343 13.2778 103.176 12.5187 102.842 12.0232C102.524 11.5118 101.968 11.256 101.172 11.256C100.25 11.256 99.5818 11.5357 99.1683 12.0951C98.7547 12.6385 98.548 13.5416 98.548 14.8042V21.3011H95.1601V8.9066Z" fill="black"/>
<path d="M119.109 9.93747C119.045 9.50594 118.902 9.11437 118.679 8.76275C118.456 8.39515 118.178 8.0755 117.844 7.8038C117.51 7.53209 117.128 7.32432 116.699 7.18047C116.285 7.02065 115.848 6.94073 115.387 6.94073C114.544 6.94073 113.828 7.10855 113.239 7.44419C112.651 7.76384 112.174 8.20336 111.808 8.76275C111.442 9.30616 111.172 9.92948 110.997 10.6327C110.838 11.336 110.758 12.0632 110.758 12.8143C110.758 13.5336 110.838 14.2368 110.997 14.9241C111.172 15.5953 111.442 16.2027 111.808 16.7461C112.174 17.2895 112.651 17.729 113.239 18.0646C113.828 18.3843 114.544 18.5441 115.387 18.5441C116.532 18.5441 117.423 18.1925 118.059 17.4893C118.711 16.77 119.109 15.8431 119.252 14.7083H122.878C122.783 15.7791 122.536 16.7461 122.139 17.6091C121.741 18.4722 121.216 19.2074 120.564 19.8147C119.912 20.4221 119.148 20.8936 118.273 21.2292C117.399 21.5488 116.436 21.7087 115.387 21.7087C114.066 21.7087 112.889 21.4769 111.856 21.0134C110.822 20.5499 109.947 19.9186 109.231 19.1195C108.515 18.3204 107.967 17.3774 107.585 16.2906C107.203 15.2037 107.012 14.045 107.012 12.8143C107.012 11.5517 107.203 10.369 107.585 9.2662C107.967 8.1634 108.515 7.20445 109.231 6.38933C109.947 5.57422 110.822 4.93492 111.856 4.47142C112.889 4.00792 114.066 3.77618 115.387 3.77618C116.325 3.77618 117.208 3.91203 118.035 4.18373C118.878 4.45544 119.625 4.855 120.278 5.38243C120.946 5.89387 121.494 6.53318 121.924 7.30034C122.353 8.06751 122.624 8.94655 122.735 9.93747H119.109Z" fill="black"/>
<path d="M126.176 15.1158C126.176 15.6113 126.223 16.0988 126.319 16.5783C126.414 17.0417 126.573 17.4653 126.796 17.8489C127.035 18.2165 127.345 18.5121 127.726 18.7359C128.108 18.9597 128.585 19.0715 129.158 19.0715C129.731 19.0715 130.208 18.9597 130.589 18.7359C130.987 18.5121 131.297 18.2165 131.52 17.8489C131.758 17.4653 131.925 17.0417 132.021 16.5783C132.116 16.0988 132.164 15.6113 132.164 15.1158C132.164 14.6204 132.116 14.1329 132.021 13.6534C131.925 13.174 131.758 12.7504 131.52 12.3828C131.297 12.0152 130.987 11.7195 130.589 11.4958C130.208 11.256 129.731 11.1362 129.158 11.1362C128.585 11.1362 128.108 11.256 127.726 11.4958C127.345 11.7195 127.035 12.0152 126.796 12.3828C126.573 12.7504 126.414 13.174 126.319 13.6534C126.223 14.1329 126.176 14.6204 126.176 15.1158ZM122.788 15.1158C122.788 14.1249 122.939 13.2299 123.241 12.4308C123.543 11.6156 123.973 10.9284 124.529 10.369C125.086 9.79363 125.754 9.35411 126.533 9.05044C127.313 8.73079 128.188 8.57096 129.158 8.57096C130.128 8.57096 131.003 8.73079 131.782 9.05044C132.578 9.35411 133.254 9.79363 133.81 10.369C134.367 10.9284 134.796 11.6156 135.099 12.4308C135.401 13.2299 135.552 14.1249 135.552 15.1158C135.552 16.1068 135.401 17.0018 135.099 17.8009C134.796 18.6001 134.367 19.2873 133.81 19.8627C133.254 20.4221 132.578 20.8616 131.782 21.1812C131.003 21.4849 130.128 21.6368 129.158 21.6368C128.188 21.6368 127.313 21.4849 126.533 21.1812C125.754 20.8616 125.086 20.4221 124.529 19.8627C123.973 19.2873 123.543 18.6001 123.241 17.8009C122.939 17.0018 122.788 16.1068 122.788 15.1158Z" fill="black"/>
<path d="M135.703 12.7184C135.751 11.9193 135.949 11.256 136.299 10.7286C136.649 10.2012 137.095 9.77765 137.635 9.458C138.176 9.13834 138.781 8.91459 139.449 8.78673C140.117 8.64288 140.801 8.57096 141.501 8.57096C142.121 8.57096 142.749 8.61891 143.385 8.7148C144.022 8.79472 144.602 8.96253 145.127 9.21826C145.652 9.47398 146.081 9.83359 146.415 10.2971C146.749 10.7606 146.916 11.3599 146.916 12.0951V18.5441C146.916 19.1035 146.948 19.6389 147.012 20.1504C147.075 20.6618 147.187 21.0454 147.346 21.3011H143.91C143.847 21.1093 143.791 20.9175 143.743 20.7257C143.711 20.518 143.688 20.3102 143.672 20.1024C143.131 20.6618 142.495 21.0614 141.763 21.3011C141.031 21.5249 140.284 21.6368 139.52 21.6368C138.932 21.6368 138.383 21.5568 137.874 21.397C137.365 21.2532 136.92 21.0294 136.538 20.7257C136.156 20.4221 135.854 20.0385 135.631 19.575C135.425 19.1115 135.321 18.5601 135.321 17.9208C135.321 17.2176 135.441 16.6422 135.679 16.1947C135.918 15.7312 136.236 15.3636 136.633 15.0919C137.031 14.8202 137.476 14.6204 137.97 14.4925C138.478 14.3487 138.995 14.2368 139.52 14.1569C140.045 14.077 140.546 14.013 141.023 13.9651C141.501 13.9171 141.922 13.8452 142.288 13.7493C142.67 13.6534 142.972 13.5176 143.194 13.3418C143.417 13.15 143.529 12.8783 143.529 12.5267C143.529 12.1591 143.465 11.8714 143.338 11.6636C143.226 11.4398 143.067 11.272 142.86 11.1601C142.67 11.0323 142.439 10.9524 142.169 10.9204C141.914 10.8725 141.636 10.8485 141.334 10.8485C140.681 10.8485 140.157 10.9923 139.759 11.28C139.377 11.5677 139.154 12.0472 139.091 12.7184H135.703ZM143.529 15.2357C143.385 15.3636 143.202 15.4675 142.98 15.5474C142.773 15.6113 142.542 15.6672 142.288 15.7152C142.049 15.7631 141.787 15.8031 141.501 15.8351C141.23 15.867 140.968 15.907 140.713 15.9549C140.443 16.0029 140.188 16.0668 139.95 16.1467C139.711 16.2266 139.496 16.3385 139.306 16.4824C139.131 16.6102 138.987 16.786 138.876 17.0098C138.765 17.2176 138.709 17.4733 138.709 17.7769C138.709 18.0966 138.765 18.3603 138.876 18.5681C138.987 18.7599 139.139 18.9197 139.329 19.0476C139.52 19.1594 139.743 19.2394 139.997 19.2873C140.252 19.3353 140.514 19.3592 140.785 19.3592C141.453 19.3592 141.97 19.2473 142.336 19.0236C142.701 18.7998 142.972 18.5361 143.147 18.2325C143.322 17.9128 143.425 17.5931 143.457 17.2735C143.505 16.9538 143.529 16.6981 143.529 16.5063V15.2357Z" fill="black"/>
<path d="M156.036 13.2698C155.813 11.8474 154.978 11.1362 153.53 11.1362C152.99 11.1362 152.536 11.264 152.17 11.5198C151.805 11.7595 151.502 12.0791 151.264 12.4787C151.041 12.8623 150.882 13.2938 150.787 13.7733C150.691 14.2528 150.644 14.7163 150.644 15.1638C150.644 15.6113 150.691 16.0668 150.787 16.5303C150.882 16.9938 151.033 17.4173 151.24 17.8009C151.463 18.1685 151.757 18.4722 152.123 18.7119C152.489 18.9517 152.934 19.0715 153.459 19.0715C154.254 19.0715 154.874 18.8478 155.32 18.4003C155.765 17.9368 156.043 17.3214 156.155 16.5543H159.423C159.201 18.2005 158.565 19.4631 157.515 20.3422C156.465 21.2052 155.121 21.6368 153.483 21.6368C152.544 21.6368 151.693 21.4849 150.93 21.1812C150.166 20.8616 149.514 20.4221 148.973 19.8627C148.433 19.2873 148.011 18.616 147.709 17.8489C147.407 17.0657 147.256 16.2107 147.256 15.2837C147.256 14.3247 147.391 13.4377 147.661 12.6226C147.948 11.7915 148.361 11.0802 148.902 10.4889C149.443 9.88154 150.103 9.41005 150.882 9.07441C151.662 8.73878 152.552 8.57096 153.554 8.57096C154.286 8.57096 154.986 8.66686 155.654 8.85865C156.338 9.05044 156.942 9.34612 157.467 9.74568C157.992 10.1293 158.421 10.6167 158.755 11.2081C159.105 11.7994 159.304 12.4867 159.352 13.2698H156.036Z" fill="black"/>
<path d="M159.429 4.18373H162.817V10.6327H162.888C163.318 9.92948 163.866 9.41005 164.534 9.07441C165.202 8.73878 165.855 8.57096 166.491 8.57096C167.397 8.57096 168.137 8.69882 168.71 8.95454C169.298 9.19428 169.759 9.53791 170.093 9.98542C170.427 10.417 170.658 10.9524 170.785 11.5917C170.928 12.215 171 12.9102 171 13.6774V21.3011H167.612V14.3007C167.612 13.2778 167.445 12.5187 167.111 12.0232C166.793 11.5118 166.236 11.256 165.441 11.256C164.518 11.256 163.85 11.5357 163.437 12.0951C163.023 12.6385 162.817 13.5416 162.817 14.8042V21.3011H159.429V4.18373Z" fill="black"/>
<path d="M0 0.0722046V26H22.9777H23.1305V25.9924C26.5047 25.9518 29.7271 24.5691 32.0995 22.1439C34.472 19.7187 35.8033 16.4464 35.8051 13.0361C35.8038 9.62541 34.4727 6.35259 32.1003 3.92698C29.7278 1.50136 26.505 0.118378 23.1305 0.0777603V0.0722046H22.9777H0ZM22.9777 4.55482C24.8126 4.55666 26.5927 5.20981 28.0268 6.40745C29.4608 7.6051 30.4642 9.27637 30.8726 11.148C30.8445 11.1467 30.8169 11.1436 30.7885 11.1436H24.7539C23.7594 11.1436 22.9587 11.9877 22.9587 13.0361C22.9587 14.0845 23.7594 14.9283 24.7539 14.9283H30.7885C30.8161 14.9283 30.843 14.9252 30.8703 14.9239C30.462 16.7952 29.459 18.4662 28.0254 19.6639C26.5918 20.8615 24.8123 21.515 22.9777 21.5174C20.8279 21.5174 18.7661 20.6238 17.2459 19.0332C15.7258 17.4427 14.8718 15.2855 14.8718 13.0361C14.8718 10.7867 15.7258 8.62952 17.2459 7.03897C18.7661 5.44842 20.8279 4.55485 22.9777 4.55482V4.55482Z" fill="black"/>
</svg>
